<?xml version="1.0" encoding="UTF-8"?>
<svg enable-background="new 0 0 704 784" version="1.1" viewBox="0 0 704 784" xml:space="preserve" xmlns="http://www.w3.org/2000/svg">
<path d="m629.47 785c1.1552-1.0856 3.0032-0.99377 4.8337-1.0266 19.426-0.34808 38.851-0.71283 58.277-1.043 3.025-0.051453 5.9149 0.77936 9.1025 1.8553-23.703 0.21423-47.724 0.21423-72.213 0.21423z"/>
<path d="m343.05 341.96c0.20105-17.651 0.44168-34.809 0.60751-51.967 0.2908-30.088 21.48-57.388 51.417-65.827 38.349-10.81 75.569 7.7367 89.778 44.486 4.7513 12.288 6.0568 25.197 2.9186 38.287-1.9508 8.1371-1.8056 7.9655 5.8109 11.067 24.163 9.8388 41.885 25.869 48.068 52.152 8.0168 34.077-9.9614 69.232-42.06 83.01-3.0571 1.3122-6.1318 2.6011-9.2647 3.714-3.1776 1.1287-4.3132 2.7095-3.4183 6.3844 7.5504 31.008-4.67 64.338-36.804 81.256-22.035 11.601-44.384 10.84-66.846 0.98267-4.0934-1.7965-4.8741-3.9684-2.3326-7.6668 3.7607-5.4724 6.6091-11.562 11.619-16.174 5.1768-4.7645 10.83-6.8878 18.136-6.2974 18.586 1.5019 33.505-7.7157 39.087-25.094 3.0356-9.4493 1.348-18.763-3.6964-27.385-1.0912-1.8651-1.9897-3.8472-3.1389-5.6734-4.8395-7.6905-5.7566-15.601-0.96258-23.573 5.2908-8.7974 13.436-11.631 23.422-11.224 14.73 0.60031 26.752-5.0511 34.839-17.572 10.134-15.692 4.9471-36.05-11.098-46.668-10.95-7.2461-22.272-8.8269-34.433-2.6294-12.926 6.5876-25.202 14.285-37.8 21.428-23.464 13.303-46.786 26.855-70.141 40.35-18.89 10.915-37.696 21.977-56.621 32.829-16.337 9.3681-21.667 27.998-15.298 43.063 10.159 24.029 39.066 28.566 56.087 13.441 8.0594-7.1617 12.419-15.706 12.178-26.725-0.21118-9.6421 0.43475-19.3 0.48721-28.952 0.033783-6.2183 2.7218-10.93 7.589-14.427 7.4539-5.3557 15.436-9.8752 23.636-13.969 4.8931-2.4425 6.2666-1.4788 6.2503 3.8811-0.058319 19.154 0.50931 38.296-0.60501 57.461-1.5801 27.176-14.427 47.413-37.861 60.101-36.854 19.954-82.003 5.7745-100.71-32.407-7.3585-15.017-7.736-31.219-5.2907-47.43 0.67484-4.4736 0.092651-6.4901-4.4692-7.9922-32.27-10.626-52.446-37.953-51.262-71.26 1.0765-30.272 18.127-54.745 48.064-66.162 8.2447-3.1443 8.2446-3.0549 6.9481-11.954-4.1248-28.313 3.902-52.317 26.687-70.073 19.44-15.149 41.564-19.627 65.556-12.673 4.7863 1.3875 9.6011 2.7303 14.113 4.9753 2.6403 1.3139 3.4955 2.7079 1.5959 5.3816-2.2144 3.1167-4.2229 6.3885-6.1848 9.6741-6.3453 10.627-15.433 15.807-27.96 14.236-14.601-1.831-33.956 10.032-36.866 30.397-0.95914 6.7116 0.38657 13.268 3.4675 19.364 1.5761 3.1186 3.2365 6.202 5.009 9.2129 10.338 17.562-3.7027 34.669-20.09 34.207-7.4483-0.20972-14.918 0.5462-22.013 3.6218-21.967 9.522-27.74 38.399-10.96 55.445 12.761 12.965 27.556 15.554 43.596 6.6722 19.668-10.89 38.99-22.404 58.469-33.636 27.7-15.972 55.441-31.872 83.088-47.935 7.9104-4.596 15.963-8.9441 23.472-14.258 12.812-9.0663 16.559-21.987 13.387-36.111-3.0962-13.787-13.143-22.476-27.063-25.945-20.489-5.1064-41.471 10.981-41.95 32.119-0.24542 10.824-0.25769 21.649-0.92789 32.468-0.30185 4.872-2.1171 8.934-5.8655 11.624-7.9739 5.7216-16.02 11.411-24.987 15.556-5.8561 2.7069-6.4893 2.2395-6.3964-4.1938 0.021667-1.4997 2.13e-4 -3.0001-0.007325-4.993z"/>
</svg>
